<?xml version="1.0" encoding="UTF-8"?><svg id="Layer_2" xmlns="http://www.w3.org/2000/svg" viewBox="0 0 113.84 47.61"><defs><style>.cls-1{fill:#fff;stroke-width:0px;}</style></defs><g id="Layer_1-2"><path class="cls-1" d="m0,41.61c0-3.59,2.72-6.01,6.2-6.01,2.89,0,4.39,1.58,5.15,3.12l-2.58,1.22c-.38-.92-1.37-1.69-2.58-1.69-1.81,0-3.15,1.46-3.15,3.36s1.34,3.36,3.15,3.36c1.2,0,2.19-.77,2.58-1.69l2.58,1.22c-.75,1.5-2.26,3.12-5.15,3.12-3.48,0-6.2-2.44-6.2-6.01"/><rect class="cls-1" x="12.64" y="35.79" width="2.99" height="11.61"/><path class="cls-1" d="m17.72,35.79h8.51v2.52h-5.52v1.93h5.4v2.54h-5.4v2.09h5.52v2.52h-8.51v-11.61Zm4.37-2.38l-1.15,1.41h-1.58l1.57-2.51h2.35l1.62,2.51h-1.6l-1.2-1.41Z"/><polygon class="cls-1" points="30.96 40.39 30.96 47.4 27.97 47.4 27.97 35.79 31.05 35.79 35.75 42.48 35.75 35.79 38.76 35.79 38.76 47.4 35.87 47.4 30.96 40.39"/><path class="cls-1" d="m40.26,41.61c0-3.59,2.72-6.01,6.2-6.01,2.89,0,4.39,1.58,5.15,3.12l-2.58,1.22c-.38-.92-1.37-1.69-2.58-1.69-1.81,0-3.15,1.46-3.15,3.36s1.34,3.36,3.15,3.36c1.2,0,2.19-.77,2.58-1.69l2.58,1.22c-.75,1.5-2.26,3.12-5.15,3.12-3.48,0-6.2-2.44-6.2-6.01"/><rect class="cls-1" x="52.89" y="35.79" width="2.99" height="11.61"/><path class="cls-1" d="m65.41,45.65h-4.82l-.59,1.76h-3.26l4.37-11.61h3.76l4.39,11.61h-3.26l-.59-1.76Zm-4.04-2.52h3.26l-1.64-4.72-1.62,4.72Z"/><polygon class="cls-1" points="69.22 35.79 70.87 35.79 74.79 45.82 78.7 35.79 80.36 35.79 75.67 47.4 73.88 47.4 69.22 35.79"/><rect class="cls-1" x="81.87" y="35.79" width="1.44" height="11.61"/><polygon class="cls-1" points="88.9 37.08 85.23 37.08 85.23 35.79 94.04 35.79 94.04 37.08 90.35 37.08 90.35 47.4 88.9 47.4 88.9 37.08"/><path class="cls-1" d="m102.09,44.83h-5.88l-1.03,2.58h-1.6l4.66-11.61h1.79l4.68,11.61h-1.6l-1.03-2.58Zm-5.47-1.29h5.03l-2.51-6.46-2.52,6.46Z"/><polygon class="cls-1" points="106.24 35.79 113.84 35.79 113.84 37.08 107.68 37.08 107.68 40.83 113.72 40.83 113.72 42.11 107.68 42.11 107.68 46.12 113.84 46.12 113.84 47.4 106.24 47.4 106.24 35.79"/><polygon class="cls-1" points="42.53 10.53 49.71 3.8 45.81 0 35.25 10.58 45.88 21.23 49.68 17.46 42.53 10.53"/><path class="cls-1" d="m55.04,10.61c0,1.68-1.36,3.05-3.05,3.05s-3.05-1.36-3.05-3.05,1.36-3.05,3.05-3.05,3.05,1.36,3.05,3.05"/><polygon class="cls-1" points="75.31 6.07 79.08 9.88 68.43 20.51 57.85 9.95 61.66 6.05 68.38 13.23 75.31 6.07"/><path class="cls-1" d="m68.47.72c1.68,0,3.05,1.36,3.05,3.05s-1.36,3.05-3.05,3.05-3.05-1.36-3.05-3.05,1.36-3.05,3.05-3.05"/></g></svg>