<?xml version="1.0" encoding="UTF-8"?><svg id="Layer_2" xmlns="http://www.w3.org/2000/svg" viewBox="0 0 35 35"><defs><style>.cls-1{fill:#fff;stroke-width:0px;}</style></defs><g id="Layer_1-2"><path class="cls-1" d="m35,35H0V0h35v35Zm-33.67-1.33h32.35V1.33H1.33v32.35Z"/><path class="cls-1" d="m22.08,16.13l-.27,2.2c-.05.37-.36.65-.73.65h-3.57v9.22c-.38.03-.76.05-1.14.05-.86,0-1.7-.09-2.52-.25v-9.02h-2.75c-.25,0-.46-.21-.46-.46v-2.76c0-.25.21-.46.46-.46h2.75v-4.14c0-2.54,2.05-4.6,4.58-4.6h3.2c.25,0,.46.21.46.46v2.76c0,.25-.21.46-.46.46h-2.29c-1.01,0-1.83.82-1.83,1.84v3.22h3.84c.44,0,.78.39.73.83Z"/></g></svg>