<?xml version="1.0" encoding="UTF-8"?><svg id="Layer_2" xmlns="http://www.w3.org/2000/svg" viewBox="0 0 75.59 67.85"><defs><style>.cls-1{fill:#fff;stroke-width:0px;}</style></defs><g id="Layer_1-2"><path class="cls-1" d="m22.5,51.09v-4.48h2.88v.6h-2.16v1.3h1.96v.6h-1.96v1.97h-.72Z"/><path class="cls-1" d="m28.41,50.52h-.03c-.14.35-.41.64-.96.64-.67,0-1.12-.46-1.12-1.26v-2.13h.7v2.03c0,.53.24.79.69.79.36,0,.72-.19.72-.57v-2.25h.7v3.31h-.7v-.56Z"/><path class="cls-1" d="m30.19,51.09v-3.31h.7v.56h.03c.14-.35.41-.64.96-.64.67,0,1.12.46,1.12,1.26v2.13h-.7v-2.03c0-.53-.24-.79-.69-.79-.36,0-.72.19-.72.57v2.25h-.7Z"/><path class="cls-1" d="m36.14,50.52h-.04c-.19.4-.51.64-1,.64-.78,0-1.28-.6-1.28-1.73s.5-1.73,1.28-1.73c.49,0,.81.24,1,.64h.04v-2h.7v4.75h-.7v-.56Zm0-.54v-1.1c0-.4-.35-.61-.75-.61-.53,0-.83.35-.83.89v.54c0,.54.3.89.83.89.4,0,.75-.21.75-.61Z"/><path class="cls-1" d="m40.51,51.09c-.4,0-.6-.22-.64-.56h-.03c-.13.4-.47.64-.99.64-.67,0-1.11-.38-1.11-1s.47-.99,1.45-.99h.64v-.26c0-.44-.24-.67-.71-.67-.42,0-.67.18-.85.46l-.42-.34c.19-.36.63-.66,1.33-.66.83,0,1.35.42,1.35,1.17v1.66h.42v.55h-.43Zm-.69-.99v-.48h-.62c-.51,0-.76.16-.76.46v.13c0,.3.23.45.6.45.45,0,.78-.22.78-.55Z"/><path class="cls-1" d="m44.53,48.48l-.55.3c-.12-.31-.36-.5-.74-.5-.53,0-.83.35-.83.88v.55c0,.52.3.88.85.88.41,0,.66-.21.81-.53l.51.31c-.21.46-.62.77-1.28.79l-.06.3.03.03c.09-.03.19-.04.28-.04.25,0,.45.14.45.44,0,.39-.37.55-.77.55s-.6-.15-.7-.27l.26-.3c.08.1.21.18.4.18.16,0,.28-.06.28-.19,0-.1-.08-.21-.46-.26l-.16-.02.09-.44c-.8-.12-1.27-.76-1.27-1.71,0-1.06.59-1.73,1.57-1.73.68,0,1.08.32,1.29.78Z"/><path class="cls-1" d="m48.21,51.09c-.4,0-.6-.22-.64-.56h-.03c-.13.4-.47.64-.99.64-.67,0-1.11-.38-1.11-1s.47-.99,1.45-.99h.64v-.26c0-.44-.24-.67-.71-.67-.42,0-.67.18-.85.46l-.42-.34c.19-.36.63-.66,1.33-.66.83,0,1.35.42,1.35,1.17v1.66h.42v.55h-.43Zm-1.34-4.02c-.19-.1-.34-.15-.47-.15-.14,0-.24.06-.37.17l-.26-.33c.13-.2.35-.37.66-.37.21,0,.36.08.5.15.19.1.34.15.47.15s.24-.06.37-.17l.26.33c-.13.2-.35.37-.66.37-.21,0-.36-.08-.5-.15Zm.65,3.03v-.48h-.62c-.51,0-.76.16-.76.46v.13c0,.3.23.45.6.45.45,0,.78-.22.78-.55Z"/><path class="cls-1" d="m49.25,49.43c0-1.06.6-1.73,1.57-1.73s1.57.67,1.57,1.73-.6,1.73-1.57,1.73-1.57-.67-1.57-1.73Zm2.41.25v-.5c0-.62-.33-.93-.84-.93s-.84.31-.84.93v.5c0,.62.33.93.84.93s.84-.31.84-.93Z"/><path class="cls-1" d="m22.45,55.48h.7v.56h.04c.19-.4.51-.64,1-.64.78,0,1.28.6,1.28,1.73s-.5,1.73-1.28,1.73c-.49,0-.81-.24-1-.64h-.04v1.85h-.7v-4.59Zm2.28,1.92v-.54c0-.54-.3-.89-.83-.89-.4,0-.75.21-.75.61v1.1c0,.4.35.61.75.61.53,0,.83-.35.83-.89Z"/><path class="cls-1" d="m28.95,58.79c-.4,0-.6-.22-.64-.56h-.03c-.13.4-.47.64-.99.64-.67,0-1.11-.38-1.11-1s.47-.99,1.45-.99h.64v-.26c0-.44-.24-.67-.71-.67-.42,0-.67.18-.85.46l-.42-.34c.19-.36.63-.66,1.33-.66.83,0,1.35.42,1.35,1.17v1.66h.42v.55h-.43Zm-.69-.99v-.48h-.62c-.51,0-.76.16-.76.46v.13c0,.3.23.45.6.45.45,0,.78-.22.78-.55Z"/><path class="cls-1" d="m30.14,58.22h.88v-2.18h-.88v-.56h1.58v.88h.04c.13-.46.42-.88,1.09-.88h.4v.67h-.65c-.57,0-.87.38-.87.84v1.24h1.2v.56h-2.78v-.56Z"/><path class="cls-1" d="m36.65,58.79c-.4,0-.6-.22-.64-.56h-.03c-.13.4-.47.64-.99.64-.67,0-1.11-.38-1.11-1s.47-.99,1.45-.99h.64v-.26c0-.44-.24-.67-.71-.67-.42,0-.67.18-.85.46l-.42-.34c.19-.36.63-.66,1.33-.66.83,0,1.35.42,1.35,1.17v1.66h.42v.55h-.43Zm-.69-.99v-.48h-.62c-.51,0-.76.16-.76.46v.13c0,.3.23.45.6.45.45,0,.78-.22.78-.55Z"/><path class="cls-1" d="m44.36,58.79c-.4,0-.6-.22-.64-.56h-.03c-.13.4-.47.64-.99.64-.67,0-1.11-.38-1.11-1s.47-.99,1.45-.99h.64v-.26c0-.44-.24-.67-.71-.67-.42,0-.67.18-.85.46l-.42-.34c.19-.36.63-.66,1.33-.66.83,0,1.35.42,1.35,1.17v1.66h.42v.55h-.43Zm-.69-.99v-.48h-.62c-.51,0-.76.16-.76.46v.13c0,.3.23.45.6.45.45,0,.78-.22.78-.55Z"/><path class="cls-1" d="m49.27,56.55c0-1.48.55-2.32,1.68-2.32.87,0,1.26.5,1.47,1.11l-.65.22c-.13-.41-.32-.73-.83-.73-.64,0-.91.52-.91,1.34v.76c0,.82.28,1.34.91,1.34.51,0,.69-.32.83-.73l.65.22c-.21.61-.6,1.11-1.47,1.11-1.14,0-1.68-.83-1.68-2.32Z"/><path class="cls-1" d="m53.4,58.22h1.13v-2.18h-1.13v-.56h1.83v2.75h1.06v.56h-2.89v-.56Zm1-3.73v-.13c0-.21.13-.38.47-.38s.48.17.48.38v.13c0,.21-.13.38-.47.38s-.48-.17-.48-.38Z"/><path class="cls-1" d="m56.99,57.14c0-1.06.62-1.74,1.56-1.74s1.52.67,1.52,1.64v.26h-2.37v.11c0,.52.35.89.92.89.42,0,.73-.2.92-.51l.44.38c-.22.38-.69.69-1.37.69-1.01,0-1.61-.67-1.61-1.73Zm1.9-3.32l.77.96-.37.27-.76-.74-.76.74-.35-.27.77-.96h.71Zm-1.19,2.99v.04h1.66v-.06c0-.52-.32-.86-.81-.86s-.85.37-.85.88Z"/><path class="cls-1" d="m60.99,58.79v-3.31h.7v.56h.03c.14-.35.41-.64.96-.64.67,0,1.12.46,1.12,1.26v2.13h-.7v-2.03c0-.53-.24-.79-.69-.79-.36,0-.72.19-.72.57v2.25h-.7Z"/><path class="cls-1" d="m64.78,57.13c0-1.06.59-1.73,1.57-1.73.68,0,1.08.32,1.29.78l-.55.3c-.12-.31-.36-.5-.74-.5-.53,0-.83.35-.83.88v.55c0,.52.3.88.85.88.41,0,.66-.21.81-.53l.51.31c-.21.46-.64.79-1.33.79-.99,0-1.57-.67-1.57-1.73Z"/><path class="cls-1" d="m68.8,58.22h1.13v-2.18h-1.13v-.56h1.83v2.75h1.06v.56h-2.89v-.56Zm1-3.73v-.13c0-.21.13-.38.47-.38s.48.17.48.38v.13c0,.21-.13.38-.47.38s-.48-.17-.48-.38Z"/><path class="cls-1" d="m75.16,58.79c-.4,0-.6-.22-.64-.56h-.03c-.13.4-.47.64-.99.64-.67,0-1.11-.38-1.11-1s.47-.99,1.45-.99h.64v-.26c0-.44-.24-.67-.71-.67-.42,0-.67.18-.85.46l-.42-.34c.19-.36.63-.66,1.33-.66.83,0,1.35.42,1.35,1.17v1.66h.42v.55h-.43Zm-.69-.99v-.48h-.62c-.51,0-.76.16-.76.46v.13c0,.3.23.45.6.45.45,0,.78-.22.78-.55Z"/><path class="cls-1" d="m22.33,64.84c0-1.06.62-1.74,1.56-1.74s1.52.67,1.52,1.64v.26h-2.37v.11c0,.52.35.89.92.89.42,0,.73-.2.92-.51l.44.38c-.22.38-.69.69-1.37.69-1.01,0-1.61-.67-1.61-1.73Zm.71-.33v.04h1.66v-.06c0-.52-.32-.86-.81-.86s-.85.37-.85.88Z"/><path class="cls-1" d="m32.8,66.49c-.4,0-.6-.22-.64-.56h-.03c-.13.4-.47.64-.99.64-.67,0-1.11-.38-1.11-1s.47-.99,1.45-.99h.64v-.26c0-.44-.24-.67-.71-.67-.42,0-.67.18-.85.46l-.42-.34c.19-.36.63-.66,1.33-.66.83,0,1.35.42,1.35,1.17v1.66h.42v.55h-.43Zm-.69-.99v-.48h-.62c-.51,0-.76.16-.76.46v.13c0,.3.23.45.6.45.45,0,.78-.22.78-.55Z"/><path class="cls-1" d="m39.63,62.61v3.87h-.72v-3.87h-1.4v-.6h3.53v.6h-1.4Z"/><path class="cls-1" d="m41.58,64.84c0-1.06.62-1.74,1.56-1.74s1.52.67,1.52,1.64v.26h-2.37v.11c0,.52.35.89.92.89.42,0,.73-.2.92-.51l.44.38c-.22.38-.69.69-1.37.69-1.01,0-1.61-.67-1.61-1.73Zm.71-.33v.04h1.66v-.06c0-.52-.32-.86-.81-.86s-.85.37-.85.88Z"/><path class="cls-1" d="m45.53,64.83c0-1.06.59-1.73,1.57-1.73.68,0,1.08.32,1.29.78l-.55.3c-.12-.31-.36-.5-.74-.5-.53,0-.83.35-.83.88v.55c0,.52.3.88.85.88.41,0,.66-.21.81-.53l.51.31c-.21.46-.64.79-1.33.79-.99,0-1.57-.67-1.57-1.73Z"/><path class="cls-1" d="m49.44,66.49v-3.31h.7v.56h.03c.14-.35.41-.64.96-.64.67,0,1.12.46,1.12,1.26v2.13h-.7v-2.03c0-.53-.24-.79-.69-.79-.36,0-.72.19-.72.57v2.25h-.7Z"/><path class="cls-1" d="m53.1,64.83c0-1.06.6-1.73,1.57-1.73s1.57.67,1.57,1.73-.6,1.73-1.57,1.73-1.57-.67-1.57-1.73Zm2.41.25v-.5c0-.62-.33-.93-.84-.93s-.84.31-.84.93v.5c0,.62.33.93.84.93s.84-.31.84-.93Z"/><path class="cls-1" d="m57.08,65.93h1.1v-3.62h-1.1v-.56h1.8v4.18h1.1v.56h-2.89v-.56Z"/><path class="cls-1" d="m60.81,64.83c0-1.06.6-1.73,1.57-1.73s1.57.67,1.57,1.73-.6,1.73-1.57,1.73-1.57-.67-1.57-1.73Zm2.41.25v-.5c0-.62-.33-.93-.84-.93s-.84.31-.84.93v.5c0,.62.33.93.84.93s.84-.31.84-.93Z"/><path class="cls-1" d="m66.22,67.85c-1.14,0-1.54-.3-1.54-.8,0-.36.21-.55.58-.64v-.06c-.22-.08-.37-.23-.37-.48,0-.33.25-.47.6-.56v-.03c-.4-.19-.63-.54-.63-1.01,0-.71.53-1.16,1.35-1.16.23,0,.44.04.62.11v-.11c0-.26.15-.45.44-.45h.6v.55h-.77v.15c.29.2.45.51.45.9,0,.71-.53,1.15-1.35,1.15-.15,0-.28-.01-.41-.04-.15.04-.35.14-.35.32,0,.21.22.23.51.23h.74c.89,0,1.26.37,1.26.92,0,.68-.57,1-1.74,1Zm.46-1.32h-1.15c-.16.08-.24.2-.24.37,0,.25.19.46.68.46h.52c.53,0,.81-.16.81-.46,0-.22-.15-.37-.62-.37Zm.18-2.18v-.17c0-.35-.21-.59-.66-.59s-.66.24-.66.59v.17c0,.35.21.59.66.59s.66-.24.66-.59Z"/><path class="cls-1" d="m68.8,65.93h1.13v-2.18h-1.13v-.56h1.83v2.75h1.06v.56h-2.89v-.56Zm1-3.73v-.13c0-.21.13-.38.47-.38s.48.17.48.38v.13c0,.21-.13.38-.47.38s-.48-.17-.48-.38Z"/><path class="cls-1" d="m75.16,66.49c-.4,0-.6-.22-.64-.56h-.03c-.13.4-.47.64-.99.64-.67,0-1.11-.38-1.11-1s.47-.99,1.45-.99h.64v-.26c0-.44-.24-.67-.71-.67-.42,0-.67.18-.85.46l-.42-.34c.19-.36.63-.66,1.33-.66.83,0,1.35.42,1.35,1.17v1.66h.42v.55h-.43Zm-.69-.99v-.48h-.62c-.51,0-.76.16-.76.46v.13c0,.3.23.45.6.45.45,0,.78-.22.78-.55Z"/><path class="cls-1" d="m10.31,15.81h7.86v3.38h-7.86v15.07h7.86v3.38H0v-3.38h6.48v-15.07H0v-3.38h5.08c.77,0,1.4-.63,1.4-1.4v-2.13c0-.86.34-1.69.95-2.3l3.63-3.63c.61-.61,1.44-.94,2.3-.94h4.8v3.36h-7.86v7.03Z"/><path class="cls-1" d="m28.9,5.41h8.21v3.38h-11.33v16.49h11.33v3.38h-8.21c-.86,0-1.69-.34-2.3-.95l-3.69-3.69c-.61-.61-.95-1.44-.95-2.3v-9.36c0-.86.34-1.69.95-2.3l3.69-3.69c.61-.61,1.44-.95,2.3-.95Z"/><path class="cls-1" d="m47.04,22.03v-13.24h-6.37v-3.38h4.98c.77,0,1.4-.63,1.4-1.4V0h3.83v5.41h8.26v3.38h-8.26v16.49h8.26v3.38h-5.88c-.94,0-1.83-.41-2.45-1.11l-2.96-3.38c-.52-.59-.81-1.36-.81-2.15Z"/><rect class="cls-1" x="21.95" y="34.26" width="37.19" height="3.38"/></g></svg>