<?xml version="1.0" encoding="UTF-8"?><svg id="Layer_2" xmlns="http://www.w3.org/2000/svg" viewBox="0 0 124.18 57.77"><defs><style>.cls-1{fill-rule:evenodd;}.cls-1,.cls-2{fill:#fff;stroke-width:0px;}</style></defs><g id="Layer_1-2"><g id="Artwork_2"><path class="cls-2" d="m26.96,27.8c-10.5-.3-19.98-4.63-26.96-11.51.73-1.62,1.6-3.17,2.59-4.63,4.64,8.22,13.14,13.98,23.04,14.82-.84-9.9-6.59-18.4-14.82-23.04,1.46-.99,3.01-1.86,4.63-2.59,6.87,6.98,11.21,16.46,11.51,26.96Zm2.35,2.35c10.49.3,19.98,4.63,26.96,11.51-.73,1.62-1.6,3.17-2.59,4.63-4.64-8.22-13.14-13.98-23.05-14.82.83,9.9,6.59,18.4,14.82,23.04-1.46.99-3.01,1.86-4.63,2.59-6.87-6.98-11.2-16.46-11.51-26.96Zm1.32-3.67c9.9-.84,18.4-6.59,23.05-14.82.99,1.46,1.86,3.01,2.59,4.63-6.98,6.87-16.47,11.2-26.96,11.51.3-10.49,4.63-19.98,11.51-26.96,1.62.73,3.17,1.6,4.63,2.59-8.22,4.64-13.98,13.14-14.82,23.04Zm-3.67,3.67c-.3,10.49-4.64,19.98-11.51,26.96-1.62-.73-3.17-1.6-4.63-2.59,8.22-4.64,13.98-13.14,14.82-23.04-9.9.84-18.4,6.59-23.04,14.82-.99-1.46-1.86-3.01-2.59-4.63,6.98-6.87,16.46-11.2,26.96-11.51Z"/><rect class="cls-2" x="65.89" y="22.86" width="1.13" height="8.74"/><path class="cls-1" d="m69.06,31.6h1.13v-3.79c0-.09,0-.19.02-.28.01-.09.03-.18.06-.25.11-.33.29-.6.56-.82.27-.22.59-.34.96-.35.53.01.9.2,1.12.55.22.35.33.79.32,1.31v3.62h1.13v-3.75c-.01-.71-.14-1.26-.38-1.65-.24-.39-.53-.66-.87-.81-.34-.15-.65-.22-.95-.21-.52.01-.95.13-1.3.36-.35.23-.6.5-.76.8h-.03l-.06-1.02h-1c.02.26.03.52.04.8,0,.27.01.57.01.9v4.58Z"/><path class="cls-1" d="m75.76,31.29c.22.13.48.24.78.32.3.08.62.12.97.12.73,0,1.3-.18,1.7-.53.4-.34.61-.8.61-1.36,0-.46-.14-.84-.42-1.14-.28-.3-.68-.54-1.22-.74-.4-.15-.7-.31-.89-.46-.19-.16-.28-.36-.28-.61,0-.24.09-.44.26-.6.18-.16.43-.25.77-.25.29,0,.55.05.76.13.22.08.39.16.51.23l.27-.82c-.17-.11-.39-.2-.65-.28-.26-.07-.55-.11-.87-.11-.67.01-1.19.19-1.57.54-.38.35-.57.78-.58,1.3,0,.37.13.71.41,1.01.27.3.69.56,1.25.77.41.15.7.31.88.48.18.17.27.39.26.66,0,.27-.1.49-.29.67-.2.17-.5.26-.9.27-.29,0-.57-.05-.83-.14-.27-.09-.49-.19-.67-.3l-.27.86Z"/><path class="cls-1" d="m81.52,24.17v1.16h-.96v.87h.96v3.41c0,.37.03.69.1.97.07.27.18.5.33.68.14.15.31.27.51.35.21.08.44.13.71.13.22,0,.41-.02.58-.05.17-.03.31-.07.42-.11l-.05-.87c-.08.02-.17.04-.27.06-.1.01-.23.02-.38.02-.31,0-.53-.11-.66-.32-.13-.21-.19-.51-.19-.9v-3.37h1.62v-.87h-1.62v-1.51l-1.1.35Z"/><path class="cls-1" d="m86.08,24.27c.22,0,.39-.08.52-.21.12-.13.19-.3.19-.49,0-.21-.07-.38-.19-.51-.13-.13-.29-.2-.5-.2-.22,0-.39.07-.51.2-.13.13-.19.3-.19.51,0,.19.06.36.19.49.12.13.29.2.5.21h.01Zm.58,7.33v-6.27h-1.13v6.27h1.13Z"/><path class="cls-1" d="m88.79,24.17v1.16h-.97v.87h.97v3.41c0,.37.03.69.1.97.07.27.18.5.33.68.14.15.31.27.51.35.21.08.44.13.71.13.22,0,.41-.02.58-.05.17-.03.31-.07.42-.11l-.05-.87c-.08.02-.17.04-.28.06-.1.01-.23.02-.38.02-.31,0-.53-.11-.66-.32-.13-.21-.19-.51-.19-.9v-3.37h1.62v-.87h-1.62v-1.51l-1.1.35Z"/><path class="cls-1" d="m98,25.32h-1.13v3.84c0,.11,0,.22-.03.32-.02.1-.04.19-.08.27-.1.27-.28.51-.54.72-.25.21-.57.32-.95.33-.5,0-.86-.19-1.08-.56-.21-.36-.32-.85-.31-1.45v-3.46h-1.13v3.67c0,.73.12,1.29.34,1.69.22.4.49.68.82.83.33.16.66.23.99.23.55-.02,1-.15,1.34-.39.34-.25.58-.5.72-.77h.03l.06,1.02h1c-.04-.49-.05-1.06-.05-1.72v-4.55Z"/><path class="cls-1" d="m100.15,24.17v1.16h-.96v.87h.96v3.41c0,.37.03.69.1.97.07.27.18.5.33.68.14.15.31.27.51.35.21.08.44.13.71.13.22,0,.41-.02.58-.05.17-.03.31-.07.42-.11l-.05-.87c-.08.02-.17.04-.27.06-.1.01-.23.02-.38.02-.31,0-.53-.11-.66-.32-.13-.21-.19-.51-.19-.9v-3.37h1.62v-.87h-1.62v-1.51l-1.1.35Z"/><path class="cls-1" d="m106.64,30.89c-.56-.01-1-.24-1.34-.69-.34-.45-.51-1.02-.52-1.72,0-.4.07-.79.2-1.16.13-.37.34-.67.62-.91.28-.23.64-.36,1.08-.37.44,0,.8.14,1.08.39.27.25.48.55.6.92.13.37.19.73.19,1.1-.01.73-.19,1.31-.54,1.76-.35.45-.8.68-1.35.69h-.01Zm-.03.86c.5,0,.99-.11,1.46-.35.47-.23.85-.6,1.16-1.09.3-.49.46-1.13.47-1.9-.01-.97-.29-1.74-.83-2.32-.54-.58-1.26-.88-2.17-.89-.58,0-1.1.13-1.56.4-.46.26-.83.64-1.11,1.14-.27.5-.41,1.1-.42,1.8.02,1,.31,1.79.86,2.36.56.57,1.26.86,2.12.87h.01Z"/><path class="cls-1" d="m67.02,36.46c.1-.03.24-.05.42-.06.18-.02.4-.03.65-.03.63,0,1.14.14,1.51.43.37.29.56.72.57,1.3,0,.61-.2,1.07-.59,1.39-.39.32-.93.48-1.62.48-.38,0-.69-.03-.94-.09v-3.42Zm-1.13,7.93h1.13v-3.58c.13.03.27.05.43.07.15,0,.32.01.49.01.56,0,1.07-.08,1.53-.24.46-.16.85-.4,1.15-.73.46-.46.69-1.09.69-1.89,0-.39-.07-.74-.21-1.05-.14-.31-.33-.57-.57-.78-.26-.24-.6-.42-1.01-.54-.41-.13-.9-.19-1.46-.19-.45,0-.86.02-1.22.05-.36.03-.68.08-.95.13v8.74Z"/><path class="cls-1" d="m75.12,43.66c-.56-.01-1.02-.25-1.36-.7-.34-.45-.52-1.03-.53-1.75,0-.41.07-.8.2-1.18.14-.38.35-.68.63-.92.29-.24.65-.36,1.1-.37.45,0,.81.14,1.09.39.28.25.48.56.61.93.13.37.19.74.19,1.11-.01.74-.19,1.33-.55,1.79-.35.45-.81.69-1.37.7h-.01Zm-.03.87c.51,0,1-.12,1.48-.35.47-.24.87-.61,1.17-1.11.31-.5.47-1.14.48-1.93-.01-.98-.29-1.77-.84-2.35-.55-.59-1.28-.89-2.2-.91-.58,0-1.11.14-1.58.4-.47.27-.84.65-1.12,1.15-.28.5-.42,1.11-.43,1.82.02,1.02.31,1.81.88,2.39.56.58,1.28.87,2.15.88h.01Z"/><rect class="cls-2" x="79.68" y="35.05" width="1.15" height="9.34"/><path class="cls-1" d="m83.32,36.96c.22,0,.4-.08.52-.21.13-.13.19-.3.19-.5,0-.21-.07-.38-.2-.52-.13-.13-.3-.2-.51-.21-.22,0-.39.07-.52.21-.13.13-.19.31-.2.52,0,.19.07.36.19.5.12.14.29.21.5.21h.01Zm.58,7.43v-6.36h-1.15v6.36h1.15Z"/><path class="cls-1" d="m86.07,36.85v1.17h-.98v.88h.98v3.46c0,.38.04.7.1.98.07.28.18.51.34.69.14.15.31.27.52.35.21.09.45.13.72.13.22,0,.42-.02.59-.05.17-.03.31-.07.43-.11l-.05-.88c-.08.02-.18.04-.28.06-.1.01-.23.02-.39.02-.32,0-.54-.11-.67-.32-.13-.21-.19-.52-.19-.91v-3.42h1.64v-.88h-1.64v-1.53l-1.12.35Z"/><path class="cls-1" d="m93.06,35.27l-1.15,1.88h.81l1.59-1.88h-1.25Zm-2.35,5.31c.03-.28.11-.56.24-.84.13-.29.32-.53.57-.73.25-.2.57-.3.96-.31.42,0,.75.12.98.32.23.21.39.45.48.74.09.29.13.56.12.81h-3.34Zm4.41.83c.01-.07.02-.14.03-.23,0-.09,0-.19,0-.31,0-.41-.07-.84-.21-1.3-.15-.46-.41-.85-.79-1.18-.38-.33-.91-.5-1.59-.52-.62,0-1.14.16-1.59.46-.44.3-.78.71-1.02,1.23-.24.51-.36,1.1-.36,1.74,0,.97.28,1.74.83,2.32.54.58,1.3.87,2.28.89.5,0,.93-.05,1.28-.13.35-.08.63-.17.83-.27l-.21-.83c-.2.09-.44.17-.72.23-.28.06-.62.1-1.03.1-.59,0-1.09-.17-1.5-.52-.41-.35-.63-.91-.66-1.68h4.42Z"/><path class="cls-1" d="m100.89,43.28c-.16.07-.35.14-.58.2-.23.06-.5.09-.83.1-.64,0-1.16-.22-1.56-.64-.4-.42-.61-1-.63-1.74,0-.67.19-1.24.57-1.69.38-.46.93-.69,1.66-.71.31,0,.58.04.8.1.22.06.4.13.53.21l.26-.88c-.16-.09-.38-.17-.66-.23-.28-.07-.59-.1-.93-.11-1.04.02-1.87.34-2.47.96-.6.62-.91,1.43-.92,2.43.01.99.3,1.77.86,2.35.56.58,1.32.88,2.28.89.43,0,.8-.05,1.11-.13.31-.08.55-.16.7-.24l-.19-.87Z"/><path class="cls-1" d="m102.43,44.39h1.15v-3.84c0-.1,0-.19.02-.29.01-.09.03-.18.06-.25.11-.33.3-.61.57-.83.27-.23.59-.34.97-.35.54.01.91.2,1.14.56.22.36.33.81.32,1.33v3.67h1.15v-3.8c-.01-.72-.14-1.28-.38-1.67-.24-.39-.54-.67-.88-.82-.34-.15-.66-.22-.97-.22-.53.01-.96.14-1.32.37-.35.23-.61.51-.77.81h-.03l-.06-1.04h-1.02c.02.26.03.53.04.81,0,.28.01.58.01.91v4.64Z"/><path class="cls-1" d="m110.21,36.96c.22,0,.4-.08.53-.21.13-.13.19-.3.19-.5,0-.21-.07-.38-.19-.52-.13-.13-.3-.2-.51-.21-.22,0-.39.07-.52.21-.13.13-.19.31-.2.52,0,.19.07.36.19.5.12.14.29.21.5.21h.01Zm.59,7.43v-6.36h-1.15v6.36h1.15Z"/><path class="cls-1" d="m117.01,43.28c-.16.07-.35.14-.58.2-.23.06-.5.09-.83.1-.64,0-1.16-.22-1.56-.64-.4-.42-.61-1-.62-1.74,0-.67.19-1.24.57-1.69.38-.46.93-.69,1.66-.71.31,0,.58.04.8.1.22.06.4.13.53.21l.26-.88c-.16-.09-.38-.17-.66-.23-.28-.07-.59-.1-.93-.11-1.04.02-1.87.34-2.47.96-.6.62-.91,1.43-.92,2.43.01.99.3,1.77.86,2.35.56.58,1.32.88,2.28.89.43,0,.8-.05,1.11-.13.31-.08.55-.16.7-.24l-.2-.87Z"/><path class="cls-1" d="m121.08,43.66c-.57-.01-1.02-.25-1.36-.7-.34-.45-.52-1.03-.53-1.75,0-.41.07-.8.2-1.18.14-.38.35-.68.63-.92.29-.24.65-.36,1.1-.37.45,0,.81.14,1.09.39.28.25.48.56.61.93.13.37.19.74.19,1.11-.01.74-.19,1.33-.55,1.79-.35.45-.81.69-1.37.7h-.01Zm-.03.87c.51,0,1-.12,1.48-.35.47-.24.87-.61,1.17-1.11.31-.5.47-1.14.48-1.93-.01-.98-.29-1.77-.84-2.35-.55-.59-1.28-.89-2.2-.91-.58,0-1.11.14-1.58.4-.47.27-.84.65-1.12,1.15-.28.5-.42,1.11-.43,1.82.02,1.02.31,1.81.88,2.39.56.58,1.28.87,2.15.88h.01Z"/><path class="cls-1" d="m70.74,54.9c0,.09,0,.18-.01.26,0,.08-.02.16-.04.23-.11.45-.33.79-.64,1.05-.31.25-.67.37-1.07.38-.63-.02-1.1-.25-1.42-.71-.32-.46-.48-1.02-.48-1.7,0-.73.17-1.32.51-1.78.34-.46.81-.7,1.42-.71.44,0,.81.14,1.11.4.3.26.49.57.58.96.02.08.03.16.04.25,0,.09.01.17.01.25v1.13Zm0-6.79v3.86h-.03c-.14-.26-.37-.49-.7-.68-.33-.19-.74-.29-1.24-.3-.53,0-1.01.14-1.44.42-.43.28-.78.68-1.04,1.2-.26.52-.39,1.14-.4,1.87.02,1,.28,1.8.8,2.39.52.59,1.17.9,1.97.91.53,0,.98-.13,1.35-.37.37-.23.65-.54.83-.91h.03l.05,1.12h1.05c-.02-.23-.03-.49-.04-.79,0-.3-.01-.59-.01-.89v-7.84h-1.17Z"/><path class="cls-1" d="m74.51,53.75c.03-.28.11-.57.24-.86.13-.29.32-.54.58-.74.25-.2.58-.31.98-.31.43,0,.76.12,1,.33.24.21.4.46.49.76.09.29.13.57.12.83h-3.4Zm4.49.84c.01-.07.02-.14.03-.23,0-.09.01-.19.01-.31,0-.41-.07-.85-.22-1.32-.15-.47-.42-.87-.81-1.21-.39-.34-.93-.51-1.62-.53-.63,0-1.17.16-1.62.47-.45.31-.8.72-1.04,1.25-.24.52-.37,1.12-.37,1.78,0,.99.29,1.78.84,2.36.55.59,1.33.89,2.32.91.51,0,.95-.05,1.31-.14.36-.08.64-.18.85-.28l-.21-.84c-.21.1-.45.18-.73.24-.28.06-.63.1-1.05.1-.6,0-1.11-.17-1.53-.53-.41-.36-.64-.93-.67-1.71h4.5Z"/><polygon class="cls-1" points="84.55 57.62 85.72 57.62 85.72 49.59 88.46 49.59 88.46 48.6 81.83 48.6 81.83 49.59 84.55 49.59 84.55 57.62"/><path class="cls-1" d="m91.24,56.89c-.57-.01-1.04-.25-1.39-.71-.35-.46-.53-1.05-.54-1.78,0-.42.07-.82.21-1.2.14-.38.35-.7.64-.94.29-.24.66-.37,1.12-.38.46,0,.83.14,1.11.4.28.26.49.57.62.95.13.38.2.76.19,1.13-.01.75-.2,1.36-.56,1.82-.36.46-.83.7-1.39.71h-.01Zm-.03.88c.52,0,1.02-.12,1.51-.36.48-.24.88-.62,1.2-1.13s.47-1.17.49-1.97c-.01-1-.3-1.8-.86-2.4-.56-.6-1.3-.91-2.24-.92-.6,0-1.13.14-1.61.41-.48.27-.86.66-1.14,1.17-.28.51-.43,1.13-.43,1.86.02,1.04.32,1.85.89,2.44.57.59,1.3.89,2.19.9h.02Z"/><path class="cls-1" d="m95.89,57.62h1.14v-3.91c0-.1,0-.2.02-.3.01-.1.04-.19.07-.28.1-.31.27-.58.53-.81.25-.24.56-.36.92-.37.45.01.78.18,1,.5.23.32.34.75.34,1.27v3.9h1.14v-4.02c0-.1,0-.2.03-.3.02-.1.04-.2.07-.28.11-.29.28-.54.53-.74.24-.2.53-.31.87-.32.47,0,.81.18,1.05.52.23.35.35.84.35,1.47v3.67h1.14v-3.82c-.01-.74-.13-1.32-.36-1.73-.23-.41-.51-.69-.83-.85-.33-.16-.64-.24-.94-.23-.3,0-.56.04-.79.12-.22.08-.43.19-.62.34-.13.1-.27.22-.39.36-.13.14-.24.3-.34.49h-.03c-.14-.39-.37-.7-.68-.94-.31-.24-.69-.36-1.12-.36-.53.01-.96.13-1.29.37-.32.23-.57.51-.75.82h-.04l-.05-1.04h-1.02c.02.27.03.54.04.82.01.28.02.59.02.93v4.73Z"/><path class="cls-1" d="m110.36,55.44c0,.06,0,.12-.01.19,0,.06-.02.13-.04.19-.09.29-.27.54-.54.75-.27.21-.61.33-1.04.34-.3,0-.56-.09-.77-.27-.21-.18-.32-.47-.32-.86,0-.41.15-.73.42-.94.27-.21.61-.36,1.03-.43.41-.07.84-.1,1.27-.09v1.12Zm1.14-1.79c0-.44-.06-.87-.2-1.27-.14-.4-.39-.73-.74-.99-.36-.26-.86-.39-1.52-.4-.41,0-.8.05-1.17.15-.37.1-.69.24-.96.41l.27.79c.23-.15.49-.27.78-.36.29-.08.59-.12.9-.13.43,0,.75.09.96.26.21.17.35.37.41.61.06.23.09.44.09.63v.13c-1.25,0-2.2.2-2.86.61-.66.41-.99,1.01-1,1.8,0,.49.16.92.5,1.28.33.37.82.56,1.47.58.46,0,.86-.11,1.2-.29.34-.19.59-.41.77-.67h.04l.11.82h1.05c-.03-.22-.06-.47-.07-.73-.01-.27-.02-.54-.02-.82v-2.42Z"/><path class="cls-1" d="m113.37,57.62h1.17v-3.47c0-.19.01-.37.04-.55.08-.44.26-.8.54-1.08.27-.28.62-.42,1.03-.43.08,0,.15,0,.21.01.06,0,.13.01.19.02v-1.11c-.05,0-.1-.01-.15-.02-.05,0-.1,0-.16,0-.4,0-.76.13-1.08.38-.32.25-.56.6-.71,1.04h-.04l-.05-1.27h-1.02c.02.3.04.62.04.95,0,.33.01.69.01,1.07v4.46Z"/><path class="cls-1" d="m67.5,3.08c.51-.01.91-.16,1.19-.45s.43-.66.44-1.09c-.01-.45-.16-.81-.44-1.1-.28-.29-.67-.43-1.17-.44-.5.01-.89.16-1.18.44-.29.29-.44.65-.45,1.1,0,.44.15.8.43,1.09.28.29.67.44,1.16.45h.02Zm1.53,11.26V4.31h-3.06v10.04h3.06Z"/><path class="cls-1" d="m74.53,8.61c0-.09,0-.19.02-.28,0-.09.02-.18.04-.27.11-.47.33-.84.67-1.13.34-.28.72-.43,1.17-.44.68.02,1.2.28,1.55.8.35.51.52,1.18.52,1.99,0,.85-.19,1.53-.56,2.03-.37.5-.89.76-1.56.77-.45,0-.83-.15-1.15-.42-.32-.27-.53-.62-.64-1.04-.02-.1-.04-.21-.04-.31-.01-.11-.02-.22-.02-.34v-1.36Zm-3.05,9.64h3.05v-4.93h.04c.23.33.56.6,1,.81.44.21.96.32,1.56.33.74,0,1.46-.19,2.13-.58.68-.39,1.23-.97,1.66-1.76.43-.79.66-1.78.67-2.98-.01-1.06-.2-1.97-.58-2.72-.38-.75-.87-1.33-1.49-1.73-.62-.4-1.29-.6-2.01-.61-.72,0-1.35.14-1.91.41-.55.27-1.01.67-1.38,1.19h-.04l-.14-1.38h-2.65c.02.47.04.97.06,1.53.02.55.02,1.15.03,1.8v10.62Z"/><path class="cls-1" d="m83.94,2.44v1.87h-1.31v2.27h1.31v4.06c0,.7.07,1.29.21,1.78.14.49.35.87.63,1.17.25.26.58.46.97.61.4.16.84.23,1.34.24.43,0,.81-.03,1.16-.08.34-.05.61-.11.81-.19l-.02-2.33c-.13.03-.27.05-.4.06-.13.01-.3.02-.51.01-.45,0-.76-.14-.94-.42-.18-.29-.27-.73-.26-1.33v-3.59h2.19v-2.27h-2.19V1.6l-2.99.83Z"/></g></g></svg>