<?xml version="1.0" encoding="UTF-8"?><svg id="Layer_2" xmlns="http://www.w3.org/2000/svg" viewBox="0 0 35 35"><defs><style>.cls-1{fill:#fff;stroke-width:0px;}</style></defs><g id="Layer_1-2"><circle class="cls-1" cx="11.65" cy="11.49" r="2.12"/><rect class="cls-1" x="9.89" y="15.02" width="3.54" height="10.61" rx=".16" ry=".16"/><path class="cls-1" d="m25.45,18.91v6.01c0,.39-.32.71-.71.71h-2.12c-.39,0-.71-.32-.71-.71v-4.95c0-.98-.79-1.77-1.77-1.77s-1.77.79-1.77,1.77v4.95c0,.39-.32.71-.71.71h-2.12c-.39,0-.71-.32-.71-.71v-9.2c0-.39.32-.71.71-.71h2.12c.39,0,.71.32.71.71v.45c.71-.92,1.88-1.51,3.18-1.51,1.95,0,3.89,1.41,3.89,4.24Z"/><path class="cls-1" d="m35,35H0V0h35v35Zm-33.67-1.33h32.35V1.33H1.33v32.35Z"/></g></svg>