<?xml version="1.0" encoding="UTF-8"?><svg id="Layer_2" xmlns="http://www.w3.org/2000/svg" viewBox="0 0 290.52 58.88"><defs><style>.cls-1{fill:#fff;stroke-width:0px;}</style></defs><g id="Camada_1"><path class="cls-1" d="M5.62,5.54H0V1.87h15.8v3.67h-5.58v21.45h-4.61V5.54Z"/><path class="cls-1" d="M28.22,26.1c-.94.4-2.88,1.19-5.54,1.19-5.98,0-8.57-4.28-8.57-9.29,0-5.54,2.92-9.83,7.63-9.83,4,0,7.42,2.34,7.42,9.9v.86h-10.73c0,3.17,1.26,5.08,4.72,5.08,2.74,0,4.03-.83,4.86-1.44l.22,3.53ZM24.84,16.13c0-3.28-1.08-4.93-3.1-4.93-2.34,0-3.31,2.48-3.31,4.93h6.41Z"/><path class="cls-1" d="M44.78,26.53c-1.04.4-2.59.76-4.39.76-6.12,0-8.71-4.28-8.71-9.54s2.74-9.57,8.96-9.57c1.4,0,3.06.43,3.89.76l-.25,3.53c-.79-.4-1.91-.9-3.13-.9-3.38,0-4.86,2.27-4.86,6.23,0,3.46,1.66,6.12,5.08,6.12,1.08,0,2.56-.5,3.17-.9l.25,3.53Z"/><path class="cls-1" d="M46.62,0h4.46v10.83h.11c.79-1.15,1.84-2.66,4.61-2.66,4.21,0,5.47,3.13,5.47,6.88v11.95h-4.46v-11.12c0-2.84-.72-4.03-2.56-4.03-2.34,0-3.17,1.98-3.17,4.36v10.8h-4.46V0Z"/><path class="cls-1" d="M64.4,11.52c0-1.15-.04-2.23-.14-3.06h4.18c.04.94.14,1.91.14,2.84h.07c.65-1.12,1.91-3.13,4.93-3.13,4.21,0,5.47,3.13,5.47,6.88v11.95h-4.46v-11.12c0-2.84-.72-4.03-2.56-4.03-2.34,0-3.17,1.98-3.17,4.36v10.8h-4.46v-15.48Z"/><path class="cls-1" d="M1.71,48.56c0-4.8,3.12-7.52,4.72-8.24-1.04-1.36-1.68-2.96-1.68-4.72,0-2.96,2.4-5.76,6.32-5.76,2.4,0,4.24,1.28,4.24,3.76,0,1.76-1.44,2.72-2.08,2.72-.16,0-.16-.32-.08-.72.24-1.52-1.04-2.64-2.56-2.64-1.76,0-3.6,1.52-3.6,4.08,0,.88.32,2,.88,2.88.4-.16,1.04-.48,2-.48s2.08.4,2.08,1.36c0,1.12-.56,1.92-1.6,1.92-.8,0-2.08-.56-2.64-.96-.24-.4-.48-.48-.96-.16-1.2.88-2.16,2.96-2.16,5.2,0,4.88,4.16,8.24,11.44,8.24s11.12-4.08,11.12-7.92c0-2.72-2.08-5.52-5.68-5.52-3.36,0-4,2.64-4,3.6,0,1.36.96,2.4,1.28,2.4.24,0,.48-.24.4-.56-.08-.64.48-1.92,1.68-1.92,1.52,0,2.24.8,2.24,2,0,1.04-.64,2.32-2.8,2.32-1.92,0-4.48-1.6-4.48-4.96,0-2.96,2.48-5.84,6.72-5.84,1.68,0,3.2.32,4.96.32,3.28,0,5.36-1.28,5.36-3.52,0-1.28-1.2-2.64-2.24-2.64-.56,0-.56.48-.48.88.24.64-.32,2-1.76,2-1.28,0-1.92-.88-1.92-1.76,0-1.6,1.6-2.56,3.12-2.56,3.2,0,4.96,2.08,4.96,4.24,0,4-2.48,6.08-6.24,6.64-.96.08-.96.48-.56.96.48.8,1.2,2.32,1.2,4.8,0,6.8-6,10.88-13.28,10.88-11.12,0-13.92-6.24-13.92-10.32Z"/><path class="cls-1" d="M48.65,51.95h-8.64l-1.8,6.05h-4.61l8.42-25.12h5.04l8.1,25.12h-4.75l-1.76-6.05ZM47.68,48.42l-3.17-11.73h-.07l-3.46,11.73h6.69Z"/><path class="cls-1" d="M56.64,42.52c0-1.15-.04-2.23-.14-3.06h4.03c.04,1.12.14,2.27.14,3.38h.07c.54-1.44,1.94-3.67,4.72-3.67.29,0,.5.07.76.11v4.18c-.4-.11-.79-.18-1.26-.18-1.84,0-3.85,1.12-3.85,4.57v10.15h-4.46v-15.48Z"/><path class="cls-1" d="M69.93,35.64l4.46-1.37v5.18h3.71v3.28h-3.71v9.61c0,1.98.72,2.56,2.02,2.56.79,0,1.37-.22,1.69-.4v3.17c-.68.32-1.66.61-2.99.61-3.31,0-5.18-1.51-5.18-5.4v-10.15h-2.95v-3.28h2.95v-3.82Z"/><path class="cls-1" d="M87.83,30.02h-2.56v-1.22h6.53v1.22h-2.56v9.96h-1.41v-9.96Z"/><path class="cls-1" d="M92.9,28.8h5.2v1.22h-3.79v3.55h3.62v1.22h-3.62v3.97h4v1.22h-5.41v-11.17Z"/><path class="cls-1" d="M106.28,39.75c-.67.21-1.38.34-2.03.34-3.54,0-5.03-2.69-5.03-5.71,0-3.49,2.03-5.68,4.95-5.68.8,0,1.6.14,2.11.4v1.38c-.61-.38-1.31-.56-2.1-.56-1.82,0-3.49,1.46-3.49,4.18,0,2.88,1.15,4.79,3.59,4.79.72,0,1.42-.19,2-.53v1.41Z"/><path class="cls-1" d="M107.63,28.8h1.41v4.77h3.91v-4.77h1.41v11.17h-1.41v-5.19h-3.91v5.19h-1.41v-11.17Z"/><path class="cls-1" d="M116.35,28.8h1.74l4.21,9.22h.03v-9.22h1.34v11.17h-1.74l-4.21-9.16h-.03v9.16h-1.34v-11.17Z"/><path class="cls-1" d="M129.43,28.69c2.48,0,4.07,2.13,4.07,5.59,0,3.86-1.55,5.81-4.19,5.81-2.48,0-4.07-2.13-4.07-5.59,0-3.86,1.55-5.81,4.19-5.81ZM129.31,38.94c1.47,0,2.72-1.22,2.72-4.66,0-2.26-.7-4.43-2.59-4.43-1.47,0-2.72,1.22-2.72,4.66,0,2.26.7,4.43,2.59,4.43Z"/><path class="cls-1" d="M135.06,28.8h1.41v9.96h3.67v1.22h-5.07v-11.17Z"/><path class="cls-1" d="M144.62,28.69c2.48,0,4.07,2.13,4.07,5.59,0,3.86-1.55,5.81-4.19,5.81-2.48,0-4.07-2.13-4.07-5.59,0-3.86,1.55-5.81,4.19-5.81ZM144.49,38.94c1.47,0,2.72-1.22,2.72-4.66,0-2.26-.7-4.43-2.59-4.43-1.47,0-2.72,1.22-2.72,4.66,0,2.26.7,4.43,2.59,4.43Z"/><path class="cls-1" d="M157.59,39.51c-.66.24-1.78.58-2.77.58-3.54,0-5.03-2.69-5.03-5.71,0-3.49,2.03-5.68,4.95-5.68.96,0,1.86.13,2.62.5v1.41c-.85-.43-1.79-.69-2.61-.69-1.82,0-3.49,1.46-3.49,4.18,0,2.88,1.15,4.79,3.59,4.79.45,0,1.02-.11,1.39-.3v-3.52h-1.87v-1.22h3.22v5.68Z"/><path class="cls-1" d="M161.8,35.29l-3.35-6.48h1.6l2.46,4.95,2.48-4.95h1.55l-3.35,6.48v4.69h-1.41v-4.69Z"/><path class="cls-1" d="M166.37,38.18h1.47l-1.06,3.71h-1.22l.8-3.71Z"/><path class="cls-1" d="M173.27,28.8h2.87c1.18,0,1.84.29,2.35.77.58.54.83,1.31.83,2.13,0,1.18-.56,2.32-2.21,2.67v.03c.67.13.99.45,1.22,1.09l1.57,4.48h-1.52l-1.28-3.78c-.32-.93-.72-1.28-1.78-1.28h-.64v5.06h-1.41v-11.17ZM174.68,33.77h1.09c1.5,0,2.08-.99,2.08-1.97,0-1.25-.82-1.84-2.05-1.84h-1.12v3.81Z"/><path class="cls-1" d="M181.08,28.8h5.2v1.22h-3.79v3.55h3.62v1.22h-3.62v3.97h4v1.22h-5.41v-11.17Z"/><path class="cls-1" d="M192.65,30.42c-.53-.32-1.22-.51-1.9-.51-1.06,0-1.74.72-1.74,1.67,0,.72.29,1.17,1.89,2.1,1.73.99,2.31,1.97,2.31,3.25,0,1.78-1.1,3.17-3.25,3.17-.9,0-1.74-.19-2.34-.48v-1.46c.64.38,1.47.72,2.13.72,1.26,0,1.98-.85,1.98-1.76,0-.86-.22-1.36-1.73-2.27-2.02-1.22-2.46-1.91-2.46-3.35,0-1.84,1.41-2.8,3.11-2.8.74,0,1.52.16,2.02.37v1.36Z"/><path class="cls-1" d="M196.32,30.02h-2.56v-1.22h6.53v1.22h-2.56v9.96h-1.41v-9.96Z"/><path class="cls-1" d="M204.84,28.69c2.48,0,4.07,2.13,4.07,5.59,0,3.86-1.55,5.81-4.19,5.81-2.48,0-4.07-2.13-4.07-5.59,0-3.86,1.55-5.81,4.19-5.81ZM204.72,38.94c1.47,0,2.72-1.22,2.72-4.66,0-2.26-.7-4.43-2.59-4.43-1.47,0-2.72,1.22-2.72,4.66,0,2.26.7,4.43,2.59,4.43Z"/><path class="cls-1" d="M210.47,28.8h2.87c1.18,0,1.84.29,2.35.77.58.54.83,1.31.83,2.13,0,1.18-.56,2.32-2.21,2.67v.03c.67.13.99.45,1.22,1.09l1.57,4.48h-1.52l-1.28-3.78c-.32-.93-.72-1.28-1.78-1.28h-.64v5.06h-1.41v-11.17ZM211.88,33.77h1.09c1.5,0,2.08-.99,2.08-1.97,0-1.25-.82-1.84-2.05-1.84h-1.12v3.81Z"/><path class="cls-1" d="M223.01,28.8l3.65,11.17h-1.47l-.9-2.91h-4.26l-.9,2.91h-1.41l3.75-11.17h1.54ZM223.93,35.85l-1.71-5.57h-.03l-1.76,5.57h3.51Z"/><path class="cls-1" d="M228.49,30.02h-2.56v-1.22h6.53v1.22h-2.56v9.96h-1.41v-9.96Z"/><path class="cls-1" d="M233.56,28.8h1.41v11.17h-1.41v-11.17Z"/><path class="cls-1" d="M240.7,28.69c2.48,0,4.07,2.13,4.07,5.59,0,3.86-1.55,5.81-4.19,5.81-2.48,0-4.07-2.13-4.07-5.59,0-3.86,1.55-5.81,4.19-5.81ZM240.58,38.94c1.47,0,2.72-1.22,2.72-4.66,0-2.26-.7-4.43-2.59-4.43-1.47,0-2.72,1.22-2.72,4.66,0,2.26.7,4.43,2.59,4.43Z"/><path class="cls-1" d="M246.33,28.8h1.74l4.21,9.22h.03v-9.22h1.34v11.17h-1.74l-4.21-9.16h-.03v9.16h-1.34v-11.17Z"/><path class="cls-1" d="M90.39,46.8l3.65,11.17h-1.47l-.9-2.91h-4.26l-.9,2.91h-1.41l3.75-11.17h1.54ZM91.3,53.85l-1.71-5.57h-.03l-1.76,5.57h3.51Z"/><path class="cls-1" d="M95.07,46.8h1.74l4.21,9.22h.03v-9.22h1.34v11.17h-1.74l-4.21-9.16h-.03v9.16h-1.34v-11.17Z"/><path class="cls-1" d="M104.32,46.8h2.43c1.49,0,2.34.35,2.98.8.99.69,2.06,2.1,2.06,4.61,0,3.23-1.54,5.76-5.73,5.76h-1.75v-11.17ZM105.73,56.76h.85c2.47,0,3.75-1.68,3.75-4.55,0-2.34-.99-4.19-3.75-4.19h-.85v8.74Z"/><path class="cls-1" d="M120.88,46.8l3.65,11.17h-1.47l-.9-2.91h-4.26l-.9,2.91h-1.41l3.75-11.17h1.54ZM121.8,53.85l-1.71-5.57h-.03l-1.76,5.57h3.51Z"/><path class="cls-1" d="M125.57,46.8h2.87c1.18,0,1.84.29,2.35.77.58.54.83,1.31.83,2.13,0,1.18-.56,2.32-2.21,2.67v.03c.67.13.99.45,1.22,1.09l1.57,4.48h-1.52l-1.28-3.78c-.32-.93-.72-1.28-1.78-1.28h-.64v5.06h-1.41v-11.17ZM126.97,51.77h1.09c1.5,0,2.08-.99,2.08-1.97,0-1.25-.82-1.84-2.05-1.84h-1.12v3.81Z"/><path class="cls-1" d="M135.02,48.02h-2.56v-1.22h6.53v1.22h-2.56v9.96h-1.41v-9.96Z"/><path class="cls-1" d="M144.84,48.42c-.53-.32-1.22-.51-1.9-.51-1.06,0-1.74.72-1.74,1.67,0,.72.29,1.17,1.89,2.1,1.73.99,2.31,1.97,2.31,3.25,0,1.78-1.1,3.17-3.25,3.17-.9,0-1.74-.19-2.34-.48v-1.46c.64.38,1.47.72,2.13.72,1.26,0,1.98-.85,1.98-1.76,0-.86-.22-1.36-1.73-2.27-2.02-1.22-2.46-1.91-2.46-3.35,0-1.84,1.41-2.8,3.11-2.8.74,0,1.52.16,2.02.37v1.36Z"/><path class="cls-1" d="M150.37,46.8h5.2v1.22h-3.79v3.55h3.62v1.22h-3.62v3.97h4v1.22h-5.41v-11.17Z"/><path class="cls-1" d="M157.11,46.8h1.74l4.21,9.22h.03v-9.22h1.34v11.17h-1.74l-4.21-9.16h-.03v9.16h-1.34v-11.17Z"/><path class="cls-1" d="M166.44,46.8h1.41v4.77h3.91v-4.77h1.41v11.17h-1.41v-5.19h-3.91v5.19h-1.41v-11.17Z"/><path class="cls-1" d="M179.47,46.8l3.65,11.17h-1.47l-.9-2.91h-4.26l-.9,2.91h-1.41l3.75-11.17h1.54ZM180.39,53.85l-1.71-5.57h-.03l-1.76,5.57h3.51Z"/><path class="cls-1" d="M184.15,46.8h1.74l4.21,9.22h.03v-9.22h1.34v11.17h-1.74l-4.21-9.16h-.03v9.16h-1.34v-11.17Z"/><path class="cls-1" d="M200.05,57.75c-.67.21-1.38.34-2.03.34-3.54,0-5.03-2.69-5.03-5.71,0-3.49,2.03-5.68,4.95-5.68.8,0,1.6.14,2.11.4v1.38c-.61-.38-1.31-.56-2.1-.56-1.82,0-3.49,1.46-3.49,4.18,0,2.88,1.15,4.79,3.59,4.79.72,0,1.42-.19,2-.53v1.41Z"/><path class="cls-1" d="M201.39,46.8h5.2v1.22h-3.79v3.55h3.62v1.22h-3.62v3.97h4v1.22h-5.41v-11.17Z"/><path class="cls-1" d="M208.14,46.8h2.18l2.8,8.88h.03l2.87-8.88h2.11v11.17h-1.34v-9.64h-.03l-3.17,9.64h-1.02l-3.04-9.64h-.03v9.64h-1.34v-11.17Z"/><path class="cls-1" d="M220.13,46.8h5.2v1.22h-3.79v3.55h3.62v1.22h-3.62v3.97h4v1.22h-5.41v-11.17Z"/><path class="cls-1" d="M226.88,46.8h1.74l4.21,9.22h.03v-9.22h1.34v11.17h-1.74l-4.21-9.16h-.03v9.16h-1.34v-11.17Z"/><path class="cls-1" d="M237.87,48.02h-2.56v-1.22h6.53v1.22h-2.56v9.96h-1.41v-9.96Z"/><path class="cls-1" d="M252.99,57.75c-.67.21-1.38.34-2.03.34-3.54,0-5.03-2.69-5.03-5.71,0-3.49,2.03-5.68,4.95-5.68.8,0,1.6.14,2.11.4v1.38c-.61-.38-1.31-.56-2.1-.56-1.82,0-3.49,1.46-3.49,4.18,0,2.88,1.15,4.79,3.59,4.79.72,0,1.42-.19,2-.53v1.41Z"/><path class="cls-1" d="M254.34,46.8h5.2v1.22h-3.79v3.55h3.62v1.22h-3.62v3.97h4v1.22h-5.41v-11.17Z"/><path class="cls-1" d="M261.08,46.8h1.74l4.21,9.22h.03v-9.22h1.34v11.17h-1.74l-4.21-9.16h-.03v9.16h-1.34v-11.17Z"/><path class="cls-1" d="M272.08,48.02h-2.56v-1.22h6.53v1.22h-2.56v9.96h-1.41v-9.96Z"/><path class="cls-1" d="M277.15,46.8h5.2v1.22h-3.79v3.55h3.62v1.22h-3.62v3.97h4v1.22h-5.41v-11.17Z"/><path class="cls-1" d="M283.89,46.8h2.87c1.18,0,1.84.29,2.35.77.58.54.83,1.31.83,2.13,0,1.18-.56,2.32-2.21,2.67v.03c.67.13.99.45,1.22,1.09l1.57,4.48h-1.52l-1.28-3.78c-.32-.93-.72-1.28-1.78-1.28h-.64v5.06h-1.41v-11.17ZM285.3,51.77h1.09c1.5,0,2.08-.99,2.08-1.97,0-1.25-.82-1.84-2.05-1.84h-1.12v3.81Z"/></g></svg>