<?xml version="1.0" encoding="UTF-8"?><svg id="Layer_2" xmlns="http://www.w3.org/2000/svg" viewBox="0 0 299.78 61.56"><defs><style>.cls-1{fill:#fff;stroke-width:0px;}</style></defs><g id="Camada_1"><path class="cls-1" d="M91.43,39.88c-.67.21-1.38.34-2.03.34-3.54,0-5.03-2.69-5.03-5.71,0-3.49,2.03-5.68,4.95-5.68.8,0,1.6.14,2.11.4v1.38c-.61-.38-1.31-.56-2.1-.56-1.82,0-3.49,1.46-3.49,4.18,0,2.88,1.15,4.79,3.59,4.79.72,0,1.42-.19,2-.53v1.41Z"/><path class="cls-1" d="M92.78,28.93h5.2v1.22h-3.79v3.55h3.62v1.22h-3.62v3.97h4v1.22h-5.41v-11.17Z"/><path class="cls-1" d="M99.52,28.93h1.74l4.21,9.22h.03v-9.22h1.34v11.17h-1.74l-4.21-9.16h-.03v9.16h-1.34v-11.17Z"/><path class="cls-1" d="M110.52,30.15h-2.56v-1.22h6.53v1.22h-2.56v9.96h-1.41v-9.96Z"/><path class="cls-1" d="M115.59,28.93h2.87c1.18,0,1.84.29,2.35.77.58.54.83,1.31.83,2.13,0,1.18-.56,2.32-2.21,2.67v.03c.67.13.99.45,1.22,1.09l1.57,4.48h-1.52l-1.28-3.78c-.32-.93-.72-1.28-1.78-1.28h-.64v5.06h-1.41v-11.17ZM117,33.89h1.09c1.5,0,2.08-.99,2.08-1.97,0-1.25-.82-1.84-2.05-1.84h-1.12v3.81Z"/><path class="cls-1" d="M127.01,28.82c2.48,0,4.07,2.13,4.07,5.59,0,3.86-1.55,5.81-4.19,5.81-2.48,0-4.07-2.13-4.07-5.59,0-3.86,1.55-5.81,4.19-5.81ZM126.88,39.06c1.47,0,2.72-1.22,2.72-4.66,0-2.26-.7-4.43-2.59-4.43-1.47,0-2.72,1.22-2.72,4.66,0,2.26.7,4.43,2.59,4.43Z"/><path class="cls-1" d="M135.95,28.93h2.43c1.49,0,2.34.35,2.98.8.99.69,2.06,2.1,2.06,4.61,0,3.23-1.54,5.76-5.73,5.76h-1.75v-11.17ZM137.36,38.89h.85c2.47,0,3.75-1.68,3.75-4.55,0-2.34-.99-4.19-3.75-4.19h-.85v8.74Z"/><path class="cls-1" d="M144.84,28.93h5.2v1.22h-3.79v3.55h3.62v1.22h-3.62v3.97h4v1.22h-5.41v-11.17Z"/><path class="cls-1" d="M156.91,30.15h-2.56v-1.22h6.53v1.22h-2.56v9.96h-1.41v-9.96Z"/><path class="cls-1" d="M161.98,28.93h5.2v1.22h-3.79v3.55h3.62v1.22h-3.62v3.97h4v1.22h-5.41v-11.17Z"/><path class="cls-1" d="M175.36,39.88c-.67.21-1.38.34-2.03.34-3.54,0-5.03-2.69-5.03-5.71,0-3.49,2.03-5.68,4.95-5.68.8,0,1.6.14,2.11.4v1.38c-.61-.38-1.31-.56-2.1-.56-1.82,0-3.49,1.46-3.49,4.18,0,2.88,1.15,4.79,3.59,4.79.72,0,1.42-.19,2-.53v1.41Z"/><path class="cls-1" d="M176.7,28.93h1.74l4.21,9.22h.03v-9.22h1.34v11.17h-1.74l-4.21-9.16h-.03v9.16h-1.34v-11.17Z"/><path class="cls-1" d="M189.79,28.82c2.48,0,4.07,2.13,4.07,5.59,0,3.86-1.55,5.81-4.19,5.81-2.48,0-4.07-2.13-4.07-5.59,0-3.86,1.55-5.81,4.19-5.81ZM189.66,39.06c1.47,0,2.72-1.22,2.72-4.66,0-2.26-.7-4.43-2.59-4.43-1.47,0-2.72,1.22-2.72,4.66,0,2.26.7,4.43,2.59,4.43Z"/><path class="cls-1" d="M195.42,28.93h1.41v9.96h3.67v1.22h-5.07v-11.17Z"/><path class="cls-1" d="M204.97,28.82c2.48,0,4.07,2.13,4.07,5.59,0,3.86-1.55,5.81-4.19,5.81-2.48,0-4.07-2.13-4.07-5.59,0-3.86,1.55-5.81,4.19-5.81ZM204.84,39.06c1.47,0,2.72-1.22,2.72-4.66,0-2.26-.7-4.43-2.59-4.43-1.47,0-2.72,1.22-2.72,4.66,0,2.26.7,4.43,2.59,4.43Z"/><path class="cls-1" d="M217.94,39.64c-.66.24-1.78.58-2.77.58-3.54,0-5.03-2.69-5.03-5.71,0-3.49,2.03-5.68,4.95-5.68.96,0,1.86.13,2.62.5v1.41c-.85-.43-1.79-.69-2.61-.69-1.82,0-3.49,1.46-3.49,4.18,0,2.88,1.15,4.79,3.59,4.79.45,0,1.02-.11,1.39-.3v-3.52h-1.87v-1.22h3.22v5.68Z"/><path class="cls-1" d="M219.88,28.93h1.41v11.17h-1.41v-11.17Z"/><path class="cls-1" d="M227.58,28.93l3.65,11.17h-1.47l-.9-2.91h-4.26l-.9,2.91h-1.41l3.75-11.17h1.54ZM228.5,35.97l-1.71-5.57h-.03l-1.76,5.57h3.51Z"/><path class="cls-1" d="M232.58,38.31h1.47l-1.06,3.71h-1.22l.8-3.71Z"/><path class="cls-1" d="M239.48,28.93h2.87c1.18,0,1.84.29,2.35.77.58.54.83,1.31.83,2.13,0,1.18-.56,2.32-2.21,2.67v.03c.67.13.99.45,1.22,1.09l1.57,4.48h-1.52l-1.28-3.78c-.32-.93-.72-1.28-1.78-1.28h-.64v5.06h-1.41v-11.17ZM240.89,33.89h1.09c1.5,0,2.08-.99,2.08-1.97,0-1.25-.82-1.84-2.05-1.84h-1.12v3.81Z"/><path class="cls-1" d="M247.29,28.93h5.2v1.22h-3.79v3.55h3.62v1.22h-3.62v3.97h4v1.22h-5.41v-11.17Z"/><path class="cls-1" d="M258.86,30.55c-.53-.32-1.22-.51-1.9-.51-1.06,0-1.74.72-1.74,1.67,0,.72.29,1.17,1.89,2.1,1.73.99,2.31,1.97,2.31,3.25,0,1.78-1.1,3.17-3.25,3.17-.9,0-1.74-.19-2.34-.48v-1.46c.64.38,1.47.72,2.13.72,1.26,0,1.98-.85,1.98-1.76,0-.86-.22-1.36-1.73-2.27-2.02-1.22-2.46-1.91-2.46-3.35,0-1.84,1.41-2.8,3.11-2.8.74,0,1.52.16,2.02.37v1.36Z"/><path class="cls-1" d="M262.53,30.15h-2.56v-1.22h6.53v1.22h-2.56v9.96h-1.41v-9.96Z"/><path class="cls-1" d="M271.04,28.93l3.65,11.17h-1.47l-.9-2.91h-4.26l-.9,2.91h-1.41l3.75-11.17h1.54ZM271.95,35.97l-1.71-5.57h-.03l-1.76,5.57h3.51Z"/><path class="cls-1" d="M282.31,35.99c0,1.1-.06,1.71-.45,2.5-.46.93-1.44,1.73-3.06,1.73s-2.59-.8-3.06-1.73c-.38-.79-.45-1.39-.45-2.5v-7.06h1.41v7.27c0,1.74.77,2.87,2.1,2.87s2.1-1.12,2.1-2.87v-7.27h1.41v7.06Z"/><path class="cls-1" d="M284.29,28.93h2.87c1.18,0,1.84.29,2.35.77.58.54.83,1.31.83,2.13,0,1.18-.56,2.32-2.21,2.67v.03c.67.13.99.45,1.22,1.09l1.57,4.48h-1.52l-1.28-3.78c-.32-.93-.72-1.28-1.78-1.28h-.64v5.06h-1.41v-11.17ZM285.7,33.89h1.09c1.5,0,2.08-.99,2.08-1.97,0-1.25-.82-1.84-2.05-1.84h-1.12v3.81Z"/><path class="cls-1" d="M295.71,28.82c2.48,0,4.07,2.13,4.07,5.59,0,3.86-1.55,5.81-4.19,5.81-2.48,0-4.07-2.13-4.07-5.59,0-3.86,1.55-5.81,4.19-5.81ZM295.58,39.06c1.47,0,2.72-1.22,2.72-4.66,0-2.26-.7-4.43-2.59-4.43-1.47,0-2.72,1.22-2.72,4.66,0,2.26.7,4.43,2.59,4.43Z"/><path class="cls-1" d="M84.84,46.93h5.2v1.22h-3.79v3.55h3.62v1.22h-3.62v3.97h4v1.22h-5.41v-11.17Z"/><path class="cls-1" d="M94.2,46.93h1.54l2.59,9.11h.03l2.74-9.11h1.41l-3.51,11.17h-1.41l-3.39-11.17Z"/><path class="cls-1" d="M106.92,46.93l3.65,11.17h-1.47l-.9-2.91h-4.26l-.9,2.91h-1.41l3.75-11.17h1.54ZM107.83,53.97l-1.71-5.57h-.03l-1.76,5.57h3.51Z"/><path class="cls-1" d="M111.6,46.93h1.41v9.96h3.67v1.22h-5.07v-11.17Z"/><path class="cls-1" d="M121.15,46.82c2.48,0,4.07,2.13,4.07,5.59,0,3.86-1.55,5.81-4.19,5.81-2.48,0-4.07-2.13-4.07-5.59,0-3.86,1.55-5.81,4.19-5.81ZM121.02,57.06c1.47,0,2.72-1.22,2.72-4.66,0-2.26-.7-4.43-2.59-4.43-1.47,0-2.72,1.22-2.72,4.66,0,2.26.7,4.43,2.59,4.43Z"/><path class="cls-1" d="M126.78,46.93h2.87c1.18,0,1.84.29,2.35.77.58.54.83,1.31.83,2.13,0,1.18-.56,2.32-2.21,2.67v.03c.67.13.99.45,1.22,1.09l1.57,4.48h-1.52l-1.28-3.78c-.32-.93-.72-1.28-1.78-1.28h-.64v5.06h-1.41v-11.17ZM128.19,51.89h1.09c1.5,0,2.08-.99,2.08-1.97,0-1.25-.82-1.84-2.05-1.84h-1.12v3.81Z"/><path class="cls-1" d="M134.59,46.93h1.41v11.17h-1.41v-11.17Z"/><path class="cls-1" d="M137.21,56.78l4.55-8.63h-4.4v-1.22h6.08v1.22l-4.69,8.74h4.79v1.22h-6.32v-1.33Z"/><path class="cls-1" d="M149.5,46.93l3.65,11.17h-1.47l-.9-2.91h-4.26l-.9,2.91h-1.41l3.75-11.17h1.54ZM150.41,53.97l-1.71-5.57h-.03l-1.76,5.57h3.51Z"/><path class="cls-1" d="M160.35,57.88c-.67.21-1.38.34-2.03.34-.14,0-.29,0-.42-.02l-.59.86c.14-.03.3-.05.46-.05.75,0,1.36.42,1.36,1.15s-.66,1.39-1.9,1.39c-.56,0-1.09-.16-1.41-.29l.22-.56c.32.11.7.21,1.01.21.56,0,.93-.32.93-.67,0-.38-.22-.59-.7-.59-.27,0-.5.03-.69.11l-.24-.3.9-1.34c-2.77-.51-3.95-2.93-3.95-5.62,0-3.49,2.03-5.68,4.95-5.68.8,0,1.6.14,2.11.4v1.38c-.61-.38-1.31-.56-2.1-.56-1.82,0-3.49,1.46-3.49,4.18,0,2.88,1.15,4.79,3.59,4.79.72,0,1.42-.19,2-.53v1.41Z"/><path class="cls-1" d="M166.42,46.93l3.65,11.17h-1.47l-.9-2.91h-4.26l-.9,2.91h-1.41l3.75-11.17h1.54ZM167.95,44.31c-.18,1.06-.59,1.71-1.36,1.71-.26,0-.51-.05-1.1-.34-.5-.24-.59-.27-.75-.27-.29,0-.58.18-.62.69h-.83c.11-1.09.62-1.71,1.52-1.71.29,0,.58.08,1.22.4.32.16.45.21.56.21.29,0,.45-.24.54-.69h.83ZM167.34,53.97l-1.71-5.57h-.03l-1.76,5.57h3.51Z"/><path class="cls-1" d="M174.47,46.82c2.48,0,4.07,2.13,4.07,5.59,0,3.86-1.55,5.81-4.19,5.81-2.48,0-4.07-2.13-4.07-5.59,0-3.86,1.55-5.81,4.19-5.81ZM174.34,57.06c1.47,0,2.72-1.22,2.72-4.66,0-2.26-.7-4.43-2.59-4.43-1.47,0-2.72,1.22-2.72,4.66,0,2.26.7,4.43,2.59,4.43Z"/><path class="cls-1" d="M183.41,46.93h2.43c1.49,0,2.34.35,2.98.8.99.69,2.06,2.1,2.06,4.61,0,3.23-1.54,5.76-5.73,5.76h-1.74v-11.17ZM184.82,56.89h.85c2.46,0,3.75-1.68,3.75-4.55,0-2.34-.99-4.19-3.75-4.19h-.85v8.74Z"/><path class="cls-1" d="M196.21,46.93l3.65,11.17h-1.47l-.9-2.91h-4.26l-.9,2.91h-1.41l3.75-11.17h1.54ZM197.12,53.97l-1.71-5.57h-.03l-1.76,5.57h3.51Z"/><path class="cls-1" d="M205.69,48.55c-.53-.32-1.22-.51-1.9-.51-1.06,0-1.74.72-1.74,1.67,0,.72.29,1.17,1.89,2.1,1.73.99,2.31,1.97,2.31,3.25,0,1.78-1.1,3.17-3.25,3.17-.9,0-1.74-.19-2.34-.48v-1.46c.64.38,1.47.72,2.13.72,1.26,0,1.98-.85,1.98-1.76,0-.86-.22-1.36-1.73-2.27-2.02-1.22-2.46-1.91-2.46-3.35,0-1.84,1.41-2.8,3.11-2.8.74,0,1.52.16,2.02.37v1.36Z"/><path class="cls-1" d="M215.4,46.93l3.65,11.17h-1.47l-.9-2.91h-4.26l-.9,2.91h-1.41l3.75-11.17h1.54ZM216.31,53.97l-1.71-5.57h-.03l-1.76,5.57h3.51Z"/><path class="cls-1" d="M220.08,46.93h2.87c1.18,0,1.84.29,2.35.77.58.54.83,1.31.83,2.13,0,1.18-.56,2.32-2.21,2.67v.03c.67.13.99.45,1.22,1.09l1.57,4.48h-1.52l-1.28-3.78c-.32-.93-.72-1.28-1.78-1.28h-.64v5.06h-1.41v-11.17ZM221.49,51.89h1.09c1.5,0,2.08-.99,2.08-1.97,0-1.25-.82-1.84-2.05-1.84h-1.12v3.81Z"/><path class="cls-1" d="M229.53,48.15h-2.56v-1.22h6.53v1.22h-2.56v9.96h-1.41v-9.96Z"/><path class="cls-1" d="M234.6,46.93h5.2v1.22h-3.79v3.55h3.62v1.22h-3.62v3.97h4v1.22h-5.41v-11.17Z"/><path class="cls-1" d="M246.18,48.55c-.53-.32-1.22-.51-1.9-.51-1.06,0-1.74.72-1.74,1.67,0,.72.29,1.17,1.89,2.1,1.73.99,2.31,1.97,2.31,3.25,0,1.78-1.1,3.17-3.25,3.17-.9,0-1.74-.19-2.34-.48v-1.46c.64.38,1.47.72,2.13.72,1.26,0,1.98-.85,1.98-1.76,0-.86-.22-1.36-1.73-2.27-2.02-1.22-2.46-1.91-2.46-3.35,0-1.84,1.41-2.8,3.11-2.8.74,0,1.52.16,2.02.37v1.36Z"/><path class="cls-1" d="M5.62,5.54H0V1.87h15.8v3.67h-5.58v21.45h-4.61V5.54Z"/><path class="cls-1" d="M28.22,26.1c-.94.4-2.88,1.19-5.54,1.19-5.98,0-8.57-4.28-8.57-9.29,0-5.54,2.92-9.83,7.63-9.83,4,0,7.42,2.34,7.42,9.9v.86h-10.73c0,3.17,1.26,5.08,4.72,5.08,2.74,0,4.03-.83,4.86-1.44l.22,3.53ZM24.84,16.13c0-3.28-1.08-4.93-3.1-4.93-2.34,0-3.31,2.48-3.31,4.93h6.41Z"/><path class="cls-1" d="M44.78,26.53c-1.04.4-2.59.76-4.39.76-6.12,0-8.71-4.28-8.71-9.54s2.74-9.57,8.96-9.57c1.4,0,3.06.43,3.89.76l-.25,3.53c-.79-.4-1.91-.9-3.13-.9-3.38,0-4.86,2.27-4.86,6.23,0,3.46,1.66,6.12,5.08,6.12,1.08,0,2.56-.5,3.17-.9l.25,3.53Z"/><path class="cls-1" d="M46.62,0h4.46v10.83h.11c.79-1.15,1.84-2.66,4.61-2.66,4.21,0,5.47,3.13,5.47,6.88v11.95h-4.46v-11.12c0-2.84-.72-4.03-2.56-4.03-2.34,0-3.17,1.98-3.17,4.36v10.8h-4.46V0Z"/><path class="cls-1" d="M64.4,11.52c0-1.15-.04-2.23-.14-3.06h4.18c.04.94.14,1.91.14,2.84h.07c.65-1.12,1.91-3.13,4.93-3.13,4.21,0,5.47,3.13,5.47,6.88v11.95h-4.46v-11.12c0-2.84-.72-4.03-2.56-4.03-2.34,0-3.17,1.98-3.17,4.36v10.8h-4.46v-15.48Z"/><path class="cls-1" d="M1.71,48.56c0-4.8,3.12-7.52,4.72-8.24-1.04-1.36-1.68-2.96-1.68-4.72,0-2.96,2.4-5.76,6.32-5.76,2.4,0,4.24,1.28,4.24,3.76,0,1.76-1.44,2.72-2.08,2.72-.16,0-.16-.32-.08-.72.24-1.52-1.04-2.64-2.56-2.64-1.76,0-3.6,1.52-3.6,4.08,0,.88.32,2,.88,2.88.4-.16,1.04-.48,2-.48s2.08.4,2.08,1.36c0,1.12-.56,1.92-1.6,1.92-.8,0-2.08-.56-2.64-.96-.24-.4-.48-.48-.96-.16-1.2.88-2.16,2.96-2.16,5.2,0,4.88,4.16,8.24,11.44,8.24s11.12-4.08,11.12-7.92c0-2.72-2.08-5.52-5.68-5.52-3.36,0-4,2.64-4,3.6,0,1.36.96,2.4,1.28,2.4.24,0,.48-.24.4-.56-.08-.64.48-1.92,1.68-1.92,1.52,0,2.24.8,2.24,2,0,1.04-.64,2.32-2.8,2.32-1.92,0-4.48-1.6-4.48-4.96,0-2.96,2.48-5.84,6.72-5.84,1.68,0,3.2.32,4.96.32,3.28,0,5.36-1.28,5.36-3.52,0-1.28-1.2-2.64-2.24-2.64-.56,0-.56.48-.48.88.24.64-.32,2-1.76,2-1.28,0-1.92-.88-1.92-1.76,0-1.6,1.6-2.56,3.12-2.56,3.2,0,4.96,2.08,4.96,4.24,0,4-2.48,6.08-6.24,6.64-.96.08-.96.48-.56.96.48.8,1.2,2.32,1.2,4.8,0,6.8-6,10.88-13.28,10.88-11.12,0-13.92-6.24-13.92-10.32Z"/><path class="cls-1" d="M48.65,51.95h-8.64l-1.8,6.05h-4.61l8.42-25.12h5.04l8.1,25.12h-4.75l-1.76-6.05ZM47.68,48.42l-3.17-11.73h-.07l-3.46,11.73h6.69Z"/><path class="cls-1" d="M56.64,42.52c0-1.15-.04-2.23-.14-3.06h4.03c.04,1.12.14,2.27.14,3.38h.07c.54-1.44,1.94-3.67,4.72-3.67.29,0,.5.07.76.11v4.18c-.4-.11-.79-.18-1.26-.18-1.84,0-3.85,1.12-3.85,4.57v10.15h-4.46v-15.48Z"/><path class="cls-1" d="M69.93,35.64l4.46-1.37v5.18h3.71v3.28h-3.71v9.61c0,1.98.72,2.56,2.02,2.56.79,0,1.37-.22,1.69-.4v3.17c-.68.32-1.66.61-2.99.61-3.31,0-5.18-1.51-5.18-5.4v-10.15h-2.95v-3.28h2.95v-3.82Z"/></g></svg>