<?xml version="1.0" encoding="UTF-8"?><svg id="Layer_2" xmlns="http://www.w3.org/2000/svg" viewBox="0 0 35 35"><defs><style>.cls-1{fill:#fff;stroke-width:0px;}</style></defs><g id="Layer_1-2"><path class="cls-1" d="m24.6,10.52h-14.2c-1.4,0-2.54,1.14-2.54,2.54v8.88c0,1.4,1.14,2.54,2.54,2.54h14.2c1.4,0,2.54-1.14,2.54-2.54v-8.88c0-1.4-1.14-2.54-2.54-2.54Zm-4.82,7.59l-3.95,1.97c-.46.23-.99-.1-.99-.61v-3.95c0-.51.54-.84.99-.61l3.95,1.97c.5.25.5.97,0,1.23Z"/><path class="cls-1" d="m35,35H0V0h35v35Zm-33.67-1.33h32.35V1.33H1.33v32.35Z"/></g></svg>